<?xml version="1.0" standalone="no"?>
<!DOCTYPE svg PUBLIC "-//W3C//DTD SVG 20010904//EN"
 "http://www.w3.org/TR/2001/REC-SVG-20010904/DTD/svg10.dtd">
<svg version="1.0" xmlns="http://www.w3.org/2000/svg"
 width="300.000000pt" height="300.000000pt" viewBox="0 0 300.000000 300.000000"
 preserveAspectRatio="xMidYMid meet">
<metadata>
Created by potrace 1.11, written by Peter Selinger 2001-2013
</metadata>
<g transform="translate(0.000000,300.000000) scale(0.100000,-0.100000)"
fill="#000000" stroke="none">
<path d="M2437 2745 c-1 -1 -38 -5 -82 -8 -44 -3 -100 -10 -125 -16 -25 -5
-59 -12 -77 -15 -48 -9 -182 -60 -263 -101 -334 -168 -585 -512 -655 -900 -19
-103 -26 -283 -14 -359 25 -152 35 -198 61 -271 15 -44 29 -84 31 -90 6 -26
85 -168 128 -230 81 -118 238 -268 354 -338 132 -80 347 -157 455 -163 30 -1
99 -6 153 -10 l97 -7 0 1250 0 1251 -30 4 c-17 3 -31 4 -33 3z"/>
</g>
</svg>
